<svg xmlns="http://www.w3.org/2000/svg" xmlns:xlink="http://www.w3.org/1999/xlink" viewBox="0 0 3484 2531">
  <g id="watch_box" class="watch_box interact_with" style="isolation: isolate">
    <path d="M3443,792c3.33-3.77,5.35-5.9,7-8,19.65-22.48,29.37-29.53,34-33v85c-4.84,5.2-14.49,15.35-18,21,.33-1.14-6,9.38-16,20-16,17-16,16.72-21,22,7.27,18.29-13.6,88.38-9,76-8.45,22.72-20,52.74-17,43-2.26,7.45-11.58,27.2-16,34-20.41,31.4-55.47,67.13-88,86-20.71,12-43.14,19.43-67,28-17,6.1-37.69,8.19-56,9-9.88.44-21.48-.56-30,2a81.39,81.39,0,0,0-22,10c-24.38,19.27-48.15,34.25-53,37-5.76,3.27-19.43,13.35-28,14-6-5.39-11.16-10.16-16-15-6.65-6.65-13.81-13-20-21,5.09-23.26,36.06-39.39,47-48-10.83-5.2-26.64-11-37-19-19.2-18-37.67-35.67-56-54-10-10-23.78-20.46-32-32a146.88,146.88,0,0,1-9-14c-4.09-7.48-7.05-15.82-11-24-2.66-5.51-3.91-16.47-7-21-3.57,3-14,9-22,11-1.68.42-14.36-13.47-16-14-6.88,2-5.73,3.94-13,9,13.19-10.37-15.48,14.77-28,28-7.13-8.22-25.74-24.64-31-33,.78-9.16,5.61-13.52,8-17,7.67-7.67,13.61-14.2,22-20s17.34-11.16,26-17c2.2-1.48,7.42-4.5,10-6,5.26-3,8.7-5.1,13-9a84.85,84.85,0,0,0,9-10,71.68,71.68,0,0,0,11-21c2.61-7.71,1.57-17.43,3-27a385,385,0,0,1,8-41c.67-4,3.33-11.14,5-15,21.43-49.82,52.23-90.26,95-117,11.88-7.43,25.63-16,39-22,6.54-2.92,16.18-6.69,21-7-.4-4.46.87-9.77,12-15,4.87-2.29,23.48-8,30-4,2.9,1.53,3.05,2.39,4,6,6.42-1.32,21.72-3,28-3h28c6.38-1.81,13.75-5.69,20-8,6-2.21,10.8-6.28,15-10,5-4.41,7.52-8,12-13,12.62-13.91,23.73-29.71,37-43,5.71-5.72,11.94-13.36,20-18,5.69-3.33,11,4.35,14,7,7.47,6.6,19,15.43,24,23-8.78,6.36-35,29.22-36,42-.23,3.55,5.14,6.88,4,9-4.7,9.06-17.58,16.87-19,28,7.89,4.26,16.5,5.65,25,10,17.28,8.84,35.41,20.66,51,32,3,3.33,7,5.67,10,9,10,7.29,20.8,17.13,28,27,11.68,16,24.85,33.08,34,51,5.19,10.17,6.18,20.92,13,29C3421.09,819.26,3440.1,795.88,3443,792Z"  fill-rule="evenodd"/>
    <path d="M1660,1363c-9.09-1.88-36-13.63-44-20-13.46-9.53-40.2-28.21-36-26-3.55-1.87-9.39-7.07-12-10-5.41-6.07-12.15-11.57-18-18-2.36-2.59-7.68-11.38-10-14-9.07-10.25-12.22-15.07-19-27-2.54-4.47-6-9.34-8-15a184.21,184.21,0,0,0-11-25c-2-3.87-3.78-11.63-6-16-5.27,5.73-10,14.67-16,21-1.26,1.33-4.73,4.76-6,6-1.33,2.33-6.67,6.67-8,9-4.94-1.15-4.71-9-10-5-2.4,1.84-7.74,5.93-10,8-5.32,4.86-11.74,10.14-17,15-13.88,12.81-18.51,10.58-18,11-8.54-7-17-16.31-25-24-.13-18.34,13.32-29.19,22-39,2.84-3.21,8.52-10.4,11-14a345.93,345.93,0,0,1,24-31c4.74-5.53,12.23-15.53,17-21,8.27-9.49,13.91-14.09,21-25,5.56-8.56,5.17-13.34,7-25a144,144,0,0,1,2-22c3.33-20.8,8.87-41.77,17-60a305.78,305.78,0,0,1,14-28c2.48-4.27,6.72-8.49,9-13,7.26-10.19,9.54-13.86,16-21,2.53-2.8,6.45-8.21,9-11a136.73,136.73,0,0,1,18-16c5.47-4.22,17.48-14.54,26-20,3.53-2.26,20.26-12.86,29-17,12-5.7,17.61-7.9,24-10,12.62-4.48,27.41-10.45,40-14,16.82-4.74,39.35-5.55,57-6,12.75-.32,20.89.63,31-3,13.26-4.76,18.09-11.63,30-17,12.71-5.73,28-13.11,41-18,6.9-2.6,9.32-5.62,19-6,8,8.14,27.49,23.28,34.29,32-33,24.3-34.38,31.71-35.29,34a186.06,186.06,0,0,1,26,11c22.38,12.17,42.63,28.16,61,45,3.43,3.14,42.68,40.41,55,69,4,9.21,8.68,17.66,12,27a111.73,111.73,0,0,0,4.44,10.32c7.78-4.38,30.61-17.46,40.56-23.32,5.39-3.17,9.08-7.13,15-8,9.59,7.91,38.29,27.48,37,38-5.05,10.81-15.92,21.69-25,30-6.77,6.19-14.22,10.8-22,16-5.39,3.6-11.38,8.72-17,12a56.36,56.36,0,0,0-9,6c-3.45,3-5.68,5.78-9,9a267.45,267.45,0,0,1-4,48,50.59,50.59,0,0,0,9,2c0,1.21-.41,4.06,0,6,3.67.52,10.45,1.46,11,3-1.71,11.27-6.12,37-13,48-6.7-1.38-10.31-1.6-12-2-.48.91-.39,2.17-2,4-1.88-.53-8.25,0-12-1-1.22,2-2.17,5.93-3,8-2.42,6.06-3.69,9.9-6,15-4.29,9.45-11.55,20.68-17,30-3.27,5.59-11.5,19.5-16,24,1.81-1.81-19.36,21.34-31,32-26,23.81-60.61,38.64-97,52-18,6.59-46.18,9.76-67,10-7.59.09-20.85-.42-30,2a103.07,103.07,0,0,0-22,9c-10.08,5.47-15.61,10.93-23,19-6.28,6.86-15.78,17.43-14,15-3,4.17-21.9,24.3-28,31-6.47,9.94-21.78,19.69-28,21-4.91-4.5-10.49-9.46-15-14.63-6-6.91-12.25-13.88-19-20.37,4.44-21.18,26.91-37.48,38-54,3.53-5.25,9.71-10.84,12-14C1652.88,1371.09,1655.61,1369.52,1660,1363Z"  fill-rule="evenodd"/>
    <path d="M1573,947c-6.63,7.5-28.7,41.17-38,66-5.72,15.27-29,92.73,16,176,19.25,35.67,45.43,55.23,82,84,47.57,31.92,153.52,52.87,226,24,54.16-21.57,97.08-54,124-104,9.86-18.33,16.81-42.71,21-65,12.51-66.62-11.7-110.83-21-134-28-56.2-93-105.53-168-123C1715.57,847.84,1620.61,893.19,1573,947Z"  fill-rule="evenodd"/>
  </g>
  <!-- <g id="watch_box-2" class="watch_box interact_with" data-name="watch_box" style="isolation: isolate">
  </g> -->
  <g id="mini_rem" class="mini_rem interact_with" style="isolation: isolate">
    <path d="M2265,509c4.14-12.41,7.08-23.25,12-35,14.54-14.29,35.08-34.75,45-45,7.88,3.68,14.24,9.46,21,14,21.49,14.44,40.5,31.23,61,46,24.49,17.65,47.81,35.58,72,53,19.22,13.84,36.34,24.71,53,41,5.45,6.41-2.66,15.45-6,22-3.58,7-4.87,12.68-9,19-1.27,2-6.11,8.52-8,10-2.07,1.62-5.07,5.3-7,7-10.84,9.58-25.8,29.73-28,30-3,.7-10.33-4-14-5-.54-1.52,1.85-3.65,3-5,12.2-6.94,18.51-24.14,23-32-19.31-15.06-40.37-31.17-61-46-24.93-17.92-48.79-37.87-74-56-13.45-9.67-26.28-20.14-40-30-5.48-3.94-8.61-7.61-18-12C2285.64,489.7,2273.23,500.37,2265,509Z"  fill-rule="evenodd"/>
    <path d="M2247,498a137.73,137.73,0,0,1,21,16c8.51,7.4,17.71,15.32,26,23-4.31-4.71,21.9,18.71,42,36,4.22,3.58,12.76,11.12,17,15,18,16,50.27,43,76,65,10.46,7.47,16.72,16.33,16,21-4.47,7.89-10.31,21.46-16,31-7,7-14,13-21,20-1.49,1.09-5.71,5.75-7,7-8.75,8.46-17,22.32-28,16-5.39-4.27-3.8-4.45-2-7a72.1,72.1,0,0,0,8-7c1.61-1.86,12.81-21.59,13-25-6.75-5.66-13.75-11.43-20-17-6.83-6.08-15.27-12.84-22-19,.82.75-33.84-30.48-49-42-4-3.65-15.28-13.61-44-39-8.23-7.27-35.69-33.39-45-37-3.58,2.7-22.83,22.09-26,23,.93-6.23,4.7-19.18,13-38C2202.27,537.06,2232.3,510.6,2247,498Z"  fill-rule="evenodd"/>
  </g>
  <g id="metal" class="metal interact_with" style="isolation: isolate">
    <path d="M2612,565c-3.91,3.35-8.89,5.8-14,8-10.2,4.38-36.65,4.78-37-3,6.43-22.59,24.63-31.76,38-44,33.49-30.65,65.38-60.38,62-57,6.74-6.73,15.67-12.26,20-21,3-6.07,3.89-25.64,2-32-6.54-22.06-13.27-31.77-28-45-5-4.53-12.95-11.11-20-15-42,39.34-87.3,78-84,75-2.88,2.63-7.06,7.39-10,10-5.07,4.52-7.23,7.84-14,12-7.86-6.43-19.86-16.05-27-23,7.48-8.58,54.67-47.09,82-73,7.36-7,21.68-20,26-24-5.29-5.09-18.1-14.74-26-18-20.86-8.62-48.55-12-70-5-29.33,9.07-53,40.33-68,49-1.74-1.08-7.89-2.45-11,0-5.23,4.72-38,34-38,34-5.16,5.16-12.51,11-21,18-6-7.89-1.19-30.35,6-43,2.9-10.7,145.5-132.61,160-138,9-5.72,46.29-9.41,60-4,34.74,13.72,72.12,46.6,98,68,3,2.5,52.77,44.67,61,56,6.46,8.9,12,32.27,9,54-1.55,11.35-9.33,22.17-16,30,2.26-2.66-15.9,18.85-24,26C2692.46,491.4,2603.78,572,2612,565Z"  fill-rule="evenodd"/>
  </g>
  <g id="rem" class="rem interact_with" style="isolation: isolate">
    <path d="M3484,423V752c-1.68-.09-11.58,4.13-37,38-57.83-55.45-120.45-106.28-178-162C3266.51,609.58,3333.09,563.3,3484,423Z"  fill-rule="evenodd"/>
    <path d="M2864,986c14,13.94,23,23.76,33,33,16.89,15.55,39.82,40.55,34,34-6.11-6.87,40.61,38.61,70,68,12.24,12.24,32.21,29,43,40-9.29,5.93-32,27.9-37,39,.69,5.12,2.66,5.77,4,7-417.08,409.4-924.37,861.08-944,878-19.9,17.88-51,38.34-101,28-32.82-6.78-50.42-30.13-70-53-23-26.91-27.9-33.5-35-41-25.3-26.71-30.9-78.82-10-115,7.78-13.47,20.06-25.6,32-35,297.93-234.42,878.9-790.33,940-844-2.35,2.07,6.5-6.74,9-9,4.23-3.82,6.68-7.46,10-12C2846.73,997.54,2859,987.48,2864,986Z"  fill-rule="evenodd"/>
    <path d="M2583,1379a11.32,11.32,0,0,0-7,7c-1.53,2.1-1.5,7.9,0,10,4.85,7.75,36.05,39.75,39,40,4.95.68,10.26.23,12-2,2.28-2.49,6.65-7.42,4.9-12.43-3.51-10-38-41.11-40.9-42.57C2588.63,1377.78,2585.54,1378.17,2583,1379Z"  fill-rule="evenodd"/>
    <path d="M2495,1462c-4.56,1.33-7.37,2.32-9,7-.88,2.27-.94,7.15,0,9,12.39,14.77,27.83,33.88,40,42,4.94,2.53,22.05-5.52,15-17-2.6-4.92-37.21-40.24-39-41C2500.82,1461.41,2496.39,1461.55,2495,1462Z"  fill-rule="evenodd"/>
    <path d="M2403,1545a15.87,15.87,0,0,0-9,8c-1.05,2.58-.77,6.57,0,9,3.09,4.93,7.44,9.38,11,13,8.86,9,28.15,29.88,35,29,6.17-.71,10.83-4.37,11-13-.13-7-38.35-44.23-40-45S2405.15,1544.47,2403,1545Z"  fill-rule="evenodd"/>
    <path d="M2308,1630c-3.48,1.86-5.37,2.32-7,7-1.05,1.55-1,4.09-1,7a6.7,6.7,0,0,0,3,6c5,4.57,33.44,38.75,38,39,10,.43,14-2,16-8,.94-2.9,1.4-8,0-10-2-3-7.83-8.61-12-13-9.87-10.39-17.9-18.28-28-28C2316,1629.09,2310.57,1628.66,2308,1630Z"  fill-rule="evenodd"/>
    <path d="M2216,1714c-5.06,0-11.47,6.72-11,16,.25,4.54,29.24,34.34,38,43,2.79,2.69,9.06,1.83,13,0,3.27-1.84,5.37-4.46,6-7,.67-3.44.43-8.88-1-11-3.48-4.92-8.9-9.7-13-14C2239.86,1732.46,2225.33,1714,2216,1714Z"  fill-rule="evenodd"/>
    <path d="M2111,1803c-2.75,3.38-5.45,5.91-5,13,.11,2.23,37,44.44,41,45,3,.4,16.19.1,17-9,.12-3.28.24-7.18-1-9-4.7-8.3-12.84-16.08-19.45-23.16-6.41-6.88-9.75-10.68-16.55-17.84C2123.25,1797.57,2114.58,1799.14,2111,1803Z"  fill-rule="evenodd"/>
        <path d="M625,2334c-7.47,6.48-19.46,11.28-31,12-13.85,1.08-48.54-3.78-68-13-28.83-16.59-81.8-90.37-98-129-7.35-24.43-3.25-61.81,15-80,343.85-342.75,926.35-828.79,966-863,6.34-5.68,16.17-12.09,20-16,3.22-3.29,25-22.51,29-23,9.39,8.68,41.69,39.7,41,39,29.93,30.09,60.21,59.77,90,90,16.34,16.58,42,42.3,45,45-6.34,4.19-22.75,24.38-27,31-3.85,6-5.15,14.11-10,19C1182.73,1802.51,750.19,2222.83,625,2334Z"  fill-rule="evenodd"/>
    <path d="M1167,1591c-4,2.32-7.37,3.32-9,8-.74,2.76-.4,7,1,9,5.38,9.08,31.64,33.16,40,42,8.29.28,11.93-2.21,15-7,5-6.54-.3-13.27-4-17-12-12.07-20.65-21.27-33-33C1175.14,1590.87,1168.74,1590.1,1167,1591Z"  fill-rule="evenodd"/>
    <path d="M1071,1675c-3,3-7.82,7.23-6,14,1.75,6.51,6.77,10.72,11,15,8,8,19.37,21.54,28,28,6.18,4.62,15.14-.85,17-6,1.53-2.1,1.5-8.9,0-11-3.82-5.91-8.78-9.77-13-14-8.93-8.93-16.33-17.86-25-27C1080,1671.39,1074.06,1673.22,1071,1675Z"  fill-rule="evenodd"/>
    <path d="M981,1758c-2.6.06-6.44,3.38-8,5-4,5.09-4,9.52-3,13,12.57,15,25.65,26.85,39,41,4,3.31,10.07,1.84,14,0,2.4-1.21,3.89-3.7,5-7,.12-3.28.24-7.18-1-9-8.71-10.09-27-30.41-37-41C987.26,1758,984.71,1758.05,981,1758Z"  fill-rule="evenodd"/>
    <path d="M886,1845a11.86,11.86,0,0,0-6,2c-4.21,5.29-5.71,6.92-5,14,.19,2.36,26,30.12,40,45,3.07,1.77,9.87-.15,12-2s3.33-4,5-6c1.63-3.15.43-8.88-1-11-6.3-9.15-15.74-18.35-23-27C902.13,1853,895.5,1845.14,886,1845Z"  fill-rule="evenodd"/>
    <path d="M797,1934c-2.53-1.88-7.49-1.71-10-1-2.53,1-8.94,4.39-9,16,.15,3.93,25.23,30.44,39,45,2,2.12,11.91,1.27,14-1,1.67-2,4-4.15,5-7a14.16,14.16,0,0,0-2-12c-4.29-5.1-8.33-10.33-13-15C813.85,1951,803.49,1939.44,797,1934Z"  fill-rule="evenodd"/>
    <path d="M695,2022a11.57,11.57,0,0,0-7,2c-2.65,1.86-4,2.72-6,6-.58,3.26-1.19,7.9,1,11a57.28,57.28,0,0,0,6,8c11.59,13.65,30.31,33.92,34,36,1.06.67,16.45,4.67,17-14,.11-5.25-4.66-9.67-8-13-3.72-4.18-7-8.75-11-13-7.48-8.79-18.34-21.41-20-22A17.7,17.7,0,0,0,695,2022Z"  fill-rule="evenodd"/>
        <path d="M2500,430c5.66,5.4,21.34,19.22,27,24,4.48-3.47,8.39-7.7,14-13,23.3,22.41,77.9,62.52,77,67-2.17,2.3-13.4,12.11-19,17-3.85,3.37-8.23,7.55-12,11a166.1,166.1,0,0,0-13,13c-2.61,2.93-4.64,5.89-7,9-3.25,4.28-3.77,7-7,12-6.62,6.67-14.81,13.62-28,25,1.67-16.69-26.79-29.85-43-43-32.09-26-66.47-49.86-100-74-11.27-8.11-21.84-17.52-33-25-4.17-2.79-5.14-4.23-10-8a35.47,35.47,0,0,1-5-4c24.34-19.76,47.77-46.39,73-65,8.83-6.51,14.35-14.07,26-19,3.44,3.17,6.6,5.88,10,9s8.36,8.11,12,11c5.15,4.07,6,4.66,11,9,.91.79,6.09,5.2,7,6,5.34,4.71,14.23,12,12,10,6.3,5.58,14.52,11.32,20,17C2510.85,420.64,2503.32,426.9,2500,430Z"  fill-rule="evenodd"/>
    <path d="M2290,484c14.92,9.88,24.61,18,38,28,3.46,2.59,10.37,8,14,11,4.31,3.61,9.76,6.37,14,10,5.79,5,12.63,10.61,19,15,21,14.43,39.27,30.06,60,45,11.78,8.49,20.53,15.73,32,24,6.09,4.39,14.46,9.32,16,13-1.89,4.49-7.69,16.18-11,20-3,3.43-20.75,19.49-28,25,.6-13.85-26.33-29.52-40-42-30.23-27.62-62.45-53.79-93-81-2.94-2.61-6.12-5.37-9-8-2.34-2.14-4.63-3.89-7-6-2.94-2.62-5.11-4.38-8-7-.92-.83-4.07-3.18-5-4-6-5.34-12.51-10.39-19-16C2267.24,507.05,2287.69,486.27,2290,484Z"  fill-rule="evenodd"/>
    <path d="M2213,554c5,3.23,5.73,4.19,10,8,8.25,7.35,16.86,14.55,25,22,3,2.78,6.92,5.26,10,8,6.83,6.08,13.27,11.84,20,18,23.22,21.25,47.5,40,70,62,7.12,7,15.63,13.26,23,20,3,2.78,6.93,5.26,10,8,5.19,4.63,9.07,6.92,11,10-2.26,4.28-6.58,11.89-8,16-4.54,13.16-9.05,14.24-13,15-1.85.36-.6,1.69-2,3-3.81,3.57-6.59,5.59-11,10-2.29,2.29-6.62,6.82-9,9-2.88,2.63-7.07,5.39-10,8-3.09,2.76-5.06,5.06-8,8-4.78,4.78-9.91,9.46-15,14s-9.87,9.31-15,14c-2.88,2.63-7.07,7.39-10,10-4.48,4-7.57,5.94-12,10-3.56,3.26-6.44,6.74-10,10a96.7,96.7,0,0,1-11,9c-1.55,1.13-5.6,4.75-7,6-3.09,2.76-7.06,6.06-10,9-5.45,5.45-8.19,8.82-14,14-3.78,3.37-10.26,8.58-14,12-2.88,2.63-7.07,7.39-10,10-5.89,5.25-10.18,8.67-16,14-8.14,7.45-14.75,14.65-23,22-7.3,6.5-15.79,13.4-23,20-2.88,2.63-8.07,7.39-11,10-5.89,5.25-9.18,8.67-15,14-2.88,2.64-6.06,5.39-9,8-2.5,2.23-12,12.26-15,14-2.29-5.16-5.67-6.67-12-6-3.25,1.61-6.05,2.24-9,4-7.74,4.63-16.45,10.11-24,15-5.29,3.43-8.41,6.61-19,13a266.4,266.4,0,0,0-28-57,239,239,0,0,0-39-45c-4.43-4-9.5-8-14-12-3.3-2.9-9.63-7.17-13-10-12.29-10.29-27.22-20.08-41-29a77.61,77.61,0,0,0-23-10c4.76-7.75,7.47-11.06,20-24,2.15-2.22,10.51-7.16,13-9,.48-.48,4.49-4.88,8-8,3.77-3.35,7.22-6.67,11-10,2.5-2.2,6.43-5.72,9-8s4.35-3.94,7-6c3.1-2.41,6.06-5.38,9-8s6-5.22,9-8c2.88-2.63,4.07-3.39,7-6,1.69-1.5,5.38-4.39,7-6,4.73-4.71,10-8.47,15-13,2.36-2.16,4.64-3.84,7-6,2.88-2.63,6.07-5.39,9-8,3.71-3.31,7.25-6.75,11-10,39.79-34.53,78-68.5,117-103,2.92-2.58,7.07-6.39,10-9,3.08-2.74,6-5.22,9-8,8.14-7.45,15.75-13.65,24-21,5.45-4.85,13.27-11.15,18-16A205.09,205.09,0,0,1,2213,554Z"  fill-rule="evenodd"/>
  </g>
  <!-- <g id="rem-2" class="rem interact_with" data-name="rem" style="isolation: isolate">

  </g>
  <g id="rem-3" class="rem interact_with" data-name="rem" style="isolation: isolate">

  </g> -->
  <g id="shadow_Image" data-name="shadow Image">
    <image id="shadow_Image-2" data-name="shadow Image" width="3484" height="2531" xlink:href="images/watch_configurator1.png"/>
  </g>
</svg>
